<svg version="1.1" id="Layer_1" xmlns="http://www.w3.org/2000/svg" xmlns:xlink="http://www.w3.org/1999/xlink" x="0px" y="0px"
	 width="100%" viewBox="0 0 800 600" enable-background="new 0 0 800 600" xml:space="preserve">
<path fill="#FFFFFF" opacity="1.000000" stroke="none" 
	d="
M567.000000,601.000000 
	C378.000000,601.000000 189.500000,601.000000 1.000000,601.000000 
	C1.000000,401.000000 1.000000,201.000000 1.000000,1.000000 
	C267.666656,1.000000 534.333313,1.000000 801.000000,1.000000 
	C801.000000,201.000000 801.000000,401.000000 801.000000,601.000000 
	C723.166687,601.000000 645.333313,601.000000 567.000000,601.000000 
M440.500000,507.001587 
	C454.664703,507.001465 468.829651,507.048340 482.994049,506.982605 
	C490.789856,506.946442 494.366455,503.384735 493.884735,495.640472 
	C493.719696,492.987671 492.492218,490.218018 491.141541,487.848724 
	C457.170288,428.257965 423.115967,368.714569 389.079865,309.160797 
	C351.488098,243.385468 313.913208,177.600494 276.294037,111.840866 
	C271.323456,103.152115 261.948029,103.191566 256.938324,111.890709 
	C247.818680,127.726562 238.810104,143.626343 229.727371,159.483490 
	C218.452667,179.167450 207.125961,198.821625 195.864929,218.513382 
	C181.708618,243.268005 167.606430,268.053558 153.461517,292.814728 
	C140.808807,314.963776 128.120041,337.092194 115.465027,359.239868 
	C102.801025,381.403259 90.156593,403.577820 77.508202,425.750122 
	C64.952286,447.760376 52.544140,469.857086 39.741734,491.722961 
	C36.827377,496.700500 38.112122,500.723663 41.556335,503.643738 
	C44.037910,505.747681 48.130020,506.865479 51.505642,506.869537 
	C180.836960,507.025421 310.168488,507.001587 440.500000,507.001587 
M344.084351,172.413925 
	C364.324280,207.819824 384.570740,243.221985 404.802795,278.632416 
	C445.101837,349.164337 485.382233,419.707001 525.701111,490.227631 
	C530.731140,499.025513 539.810303,499.112671 544.869507,490.385315 
	C553.718506,475.120483 562.433289,459.777771 571.188049,444.458405 
	C610.671814,375.367981 650.151489,306.275177 689.629578,237.181503 
	C713.415833,195.551346 737.109436,153.867859 761.051392,112.327446 
	C765.995117,103.749817 761.282654,94.759949 750.798767,94.783226 
	C607.000183,95.102646 463.200562,94.997147 319.401215,95.001595 
	C308.856873,95.001923 304.178284,102.444061 309.294403,111.502159 
	C320.673492,131.648926 332.258484,151.679413 344.084351,172.413925 
z"/>
<path fill="#8C52FF" opacity="1.000000" stroke="none" 
	d="
M440.000000,507.001587 
	C310.168488,507.001587 180.836960,507.025421 51.505642,506.869537 
	C48.130020,506.865479 44.037910,505.747681 41.556335,503.643738 
	C38.112122,500.723663 36.827377,496.700500 39.741734,491.722961 
	C52.544140,469.857086 64.952286,447.760376 77.508202,425.750122 
	C90.156593,403.577820 102.801025,381.403259 115.465027,359.239868 
	C128.120041,337.092194 140.808807,314.963776 153.461517,292.814728 
	C167.606430,268.053558 181.708618,243.268005 195.864929,218.513382 
	C207.125961,198.821625 218.452667,179.167450 229.727371,159.483490 
	C238.810104,143.626343 247.818680,127.726562 256.938324,111.890709 
	C261.948029,103.191566 271.323456,103.152115 276.294037,111.840866 
	C313.913208,177.600494 351.488098,243.385468 389.079865,309.160797 
	C423.115967,368.714569 457.170288,428.257965 491.141541,487.848724 
	C492.492218,490.218018 493.719696,492.987671 493.884735,495.640472 
	C494.366455,503.384735 490.789856,506.946442 482.994049,506.982605 
	C468.829651,507.048340 454.664703,507.001465 440.000000,507.001587 
z"/>
<path fill="#4BE4FF" opacity="1.000000" stroke="none" 
	d="
M343.921936,172.085617 
	C332.258484,151.679413 320.673492,131.648926 309.294403,111.502159 
	C304.178284,102.444061 308.856873,95.001923 319.401215,95.001595 
	C463.200562,94.997147 607.000183,95.102646 750.798767,94.783226 
	C761.282654,94.759949 765.995117,103.749817 761.051392,112.327446 
	C737.109436,153.867859 713.415833,195.551346 689.629578,237.181503 
	C650.151489,306.275177 610.671814,375.367981 571.188049,444.458405 
	C562.433289,459.777771 553.718506,475.120483 544.869507,490.385315 
	C539.810303,499.112671 530.731140,499.025513 525.701111,490.227631 
	C485.382233,419.707001 445.101837,349.164337 404.802795,278.632416 
	C384.570740,243.221985 364.324280,207.819824 343.921936,172.085617 
z"/>
</svg>